<svg width="15" height="17" viewBox="0 0 15 17" fill="none" xmlns="http://www.w3.org/2000/svg">
<g id="book">
<path id="Vector" d="M12.5 11.1668V3.16683C12.5 2.81321 12.3683 2.47407 12.1339 2.22402C11.8995 1.97397 11.5815 1.8335 11.25 1.8335H3.75C3.41848 1.8335 3.10054 1.97397 2.86612 2.22402C2.6317 2.47407 2.5 2.81321 2.5 3.16683V13.1668C2.5 13.6973 2.69754 14.206 3.04917 14.581C3.40081 14.9561 3.87772 15.1668 4.375 15.1668H11.875C12.0408 15.1668 12.1997 15.0966 12.3169 14.9716C12.4342 14.8465 12.5 14.677 12.5 14.5002C12.5 14.3234 12.4342 14.1538 12.3169 14.0288C12.1997 13.9037 12.0408 13.8335 11.875 13.8335H11.25V12.5002C11.5815 12.5002 11.8995 12.3597 12.1339 12.1096C12.3683 11.8596 12.5 11.5205 12.5 11.1668ZM5 3.16683H6.25V11.1668H5V3.16683ZM10 13.8335H4.375C4.20924 13.8335 4.05027 13.7633 3.93306 13.6382C3.81585 13.5132 3.75 13.3436 3.75 13.1668C3.75 12.99 3.81585 12.8204 3.93306 12.6954C4.05027 12.5704 4.20924 12.5002 4.375 12.5002H10V13.8335Z" fill="white"/>
</g>
</svg>
